<svg xmlns="http://www.w3.org/2000/svg" viewBox="0 0 32 32" fill="none">
  <defs>
    <linearGradient id="shieldGradient" x1="0%" y1="0%" x2="100%" y2="100%">
      <stop offset="0%" style="stop-color:#4ade80;stop-opacity:1" />
      <stop offset="100%" style="stop-color:#3b82f6;stop-opacity:1" />
    </linearGradient>
  </defs>
  
  <!-- Shield background -->
  <rect width="32" height="32" rx="6" fill="#0f172a"/>
  
  <!-- Shield icon -->
  <path d="M16 4.5c-3.5 0-6.5 1.5-8 3v8c0 6 3.5 10.5 8 12 4.5-1.5 8-6 8-12v-8c-1.5-1.5-4.5-3-8-3z" 
        fill="url(#shieldGradient)" 
        stroke="none"/>
  
  <!-- Inner shield detail -->
  <path d="M16 7c-2.5 0-4.5 1-5.5 2v6c0 4 2.5 7 5.5 8 3-1 5.5-4 5.5-8v-6c-1-1-3-2-5.5-2z" 
        fill="#ffffff" 
        opacity="0.2"/>
</svg> 